<?xml version="1.0" encoding="iso-8859-1"?>
<!-- Generator: Adobe Illustrator 19.0.0, SVG Export Plug-In . SVG Version: 6.00 Build 0)  -->
<svg version="1.1" id="Capa_1" xmlns="http://www.w3.org/2000/svg" xmlns:xlink="http://www.w3.org/1999/xlink" x="0px" y="0px"
	 viewBox="0 0 490.667 490.667" style="enable-background:new 0 0 490.667 490.667;" xml:space="preserve">
<path style="fill:#F1F2F2;" d="M405.333,138.667V448c0,23.573-19.093,42.667-42.667,42.667h-320c0,0-42.667,0-42.667-42.667V42.667
	C0,19.093,19.093,0,42.667,0h224v96c0,23.573,19.093,42.667,42.667,42.667H405.333z"/>
<path style="fill:#D0D7DF;" d="M405.333,138.667h-96c-23.573,0-42.667-19.093-42.667-42.667V0L405.333,138.667z"/>
<circle style="fill:#35DC86;" cx="352" cy="352" r="138.667"/>
<path style="fill:#F1F2F2;" d="M320,416c-2.731,0-5.461-1.045-7.541-3.125l-32-32c-4.171-4.171-4.171-10.912,0-15.083
	c4.171-4.171,10.912-4.171,15.083,0L320,390.251l99.125-99.125c4.171-4.171,10.912-4.171,15.083,0
	c4.171,4.171,4.171,10.912,0,15.083L327.541,412.875C325.461,414.955,322.731,416,320,416z"/>
<g>
</g>
<g>
</g>
<g>
</g>
<g>
</g>
<g>
</g>
<g>
</g>
<g>
</g>
<g>
</g>
<g>
</g>
<g>
</g>
<g>
</g>
<g>
</g>
<g>
</g>
<g>
</g>
<g>
</g>
</svg>
